#!OML:ASF H:\Not Pregnant\Project 1\Capture day 1\Session 1\non-pregnant.ASF
:FULLY-SPECIFIED
:DEGREES
431
root -7.51734 16.5096 -17.2865 -174.467 -5.28962 -172.252
lowerback -1.15966 1.09773 5.66281
upperback -6.75061 1.16568 1.94957
thorax -6.29888 0.0900147 -1.15302
lowerneck 21.4162 -7.26611 -30.357
upperneck -6.61918 -20.5862 40.7941
head 2.71941 -13.7646 20.5584
rclavicle 1.83627e-014 2.50469e-014
rhumerus -35.4752 -7.75596 -80.7776
rradius 26.1918
rwrist 22.6338
rhand -10.6135 -0.687613
rfingers 7.12502
rthumb 15.3928 -30.0946
lclavicle 1.83627e-014 2.50469e-014
lhumerus -44.0362 -0.23807 84.7045
lradius 25.1205
lwrist 26.4493
lhand -11.2324 -5.75817
lfingers 7.12502
lthumb 14.7966 23.6936
rfemur -25.4887 -5.6723 35.147
rtibia 31.9409
rfoot -14.6019 15.6196
rtoes -2.83761
lfemur -22.871 4.35094 -11.4573
ltibia 67.2108
lfoot -6.96569 -12.8423
ltoes -31.2312
432
root -7.52569 16.5106 -17.4044 -174.415 -4.92292 -172.225
lowerback -1.14538 1.25226 5.71167
upperback -6.70273 1.37789 1.89374
thorax -6.24064 0.196016 -1.24763
lowerneck 21.467 -7.28785 -30.3051
upperneck -6.73932 -20.6365 40.9274
head 2.71587 -13.8177 20.6203
rclavicle -7.25564e-015 1.59028e-014
rhumerus -34.8992 -7.33624 -81.1013
rradius 26.4091
rwrist 22.3688
rhand -10.9835 -0.763768
rfingers 7.12502
rthumb 15.0364 -30.1978
lclavicle -7.25564e-015 1.59028e-014
lhumerus -44.2309 -0.954644 85.0284
lradius 25.4606
lwrist 26.4967
lhand -11.1024 -6.03621
lfingers 7.12502
lthumb 14.9218 23.4063
rfemur -25.0518 -5.64231 35.1725
rtibia 32.0086
rfoot -15.0441 15.8353
rtoes -2.69112
lfemur -24.1988 4.89575 -11.5923
ltibia 67.4874
lfoot -8.31707 -11.0377
ltoes -31.9197
433
root -7.53441 16.5107 -17.5212 -174.379 -4.55592 -172.196
lowerback -1.10266 1.40522 5.77257
upperback -6.65246 1.59137 1.83257
thorax -6.19508 0.30216 -1.35476
lowerneck 21.4996 -7.31872 -30.2511
upperneck -6.83915 -20.6955 41.0455
head 2.72192 -13.8713 20.6675
rclavicle 2.83268e-015 9.54166e-015
rhumerus -34.3211 -6.9284 -81.4147
rradius 26.6117
rwrist 22.1249
rhand -11.2976 -0.83858
rfingers 7.12502
rthumb 14.7337 -30.295
lclavicle 2.83268e-015 9.54166e-015
lhumerus -44.4201 -1.61991 85.3172
lradius 25.8395
lwrist 26.6632
lhand -11.0333 -6.40418
lfingers 7.12502
lthumb 14.9884 23.0334
rfemur -24.6011 -5.5854 35.1898
rtibia 32.0763
rfoot -15.4699 16.0078
rtoes -2.56189
lfemur -25.4745 5.3942 -11.7348
ltibia 67.5973
lfoot -9.47443 -9.25095
ltoes -32.2803
434
root -7.54375 16.5097 -17.6367 -174.364 -4.19525 -172.157
lowerback -1.01379 1.55526 5.85903
upperback -6.61029 1.8056 1.76923
thorax -6.18329 0.406275 -1.47914
lowerneck 21.5332 -7.34839 -30.1987
upperneck -6.91604 -20.757 41.1491
head 2.73268 -13.9245 20.7062
rclavicle 2.26118e-015 -9.14409e-015
rhumerus -33.7569 -6.52857 -81.7144
rradius 26.7972
rwrist 21.8936
rhand -11.5511 -0.902606
rfingers 7.12502
rthumb 14.4896 -30.3767
lclavicle 2.26118e-015 -9.14409e-015
lhumerus -44.6267 -2.24303 85.5812
lradius 26.2586
lwrist 26.9623
lhand -11.0231 -6.84474
lfingers 7.12502
lthumb 14.9983 22.5921
rfemur -24.1291 -5.51743 35.2086
rtibia 32.1398
rfoot -15.8834 16.1484
rtoes -2.4713
lfemur -26.6995 5.82936 -11.8715
ltibia 67.5532
lfoot -10.4701 -7.50033
ltoes -32.389
435
root -7.55356 16.5074 -17.752 -174.377 -3.83829 -172.093
lowerback -0.895626 1.70465 5.98141
upperback -6.56832 2.02271 1.7088
thorax -6.18657 0.509607 -1.62138
lowerneck 21.5758 -7.37776 -30.1451
upperneck -6.98192 -20.8206 41.241
head 2.74345 -13.978 20.7385
rclavicle -2.40529e-014 -1.66979e-014
rhumerus -33.2093 -6.15375 -81.9941
rradius 26.9727
rwrist 21.6922
rhand -11.7436 -0.948251
rfingers 7.12502
rthumb 14.304 -30.4355
lclavicle -2.40529e-014 -1.66979e-014
lhumerus -44.8471 -2.82834 85.8215
lradius 26.7391
lwrist 27.3923
lhand -11.0654 -7.3074
lfingers 7.12502
lthumb 14.9575 22.1325
rfemur -23.624 -5.42147 35.2426
rtibia 32.1977
rfoot -16.2863 16.2437
rtoes -2.40514
lfemur -27.8638 6.20144 -11.9791
ltibia 67.3665
lfoot -11.3167 -5.81022
ltoes -32.2539
